<svg id="Layer_1" data-name="Layer 1" xmlns="http://www.w3.org/2000/svg" viewBox="0 0 446.9 107.62"><title>Cuan_Beo_Logo</title><path d="M128.24,424.09l1.89-.19c2.06-.08,4.11-.16,6.17-.15-1.58,0-3.17,0-4.75.1C130.44,423.91,129.34,424,128.24,424.09Zm11.09-.23c.73.05,1.46.11,2.2.21C140.8,424,140.06,423.91,139.33,423.86Zm-2.58-.11c.69,0,1.39,0,2.08.07C138.14,423.78,137.44,423.76,136.75,423.75Zm29.39,2.49a3.68,3.68,0,0,1,1.11.13c-.47-.05-1-.1-1.47-.18ZM158,442.76a17,17,0,0,1-1.85.19C156.82,442.89,157.44,442.83,158,442.76Zm-1.94-6.38h0Zm1.86-.1,1-.13c-.25,0-.51.09-.77.11Z" transform="translate(-42.22 -336.06)" fill="#fefefe"/><path d="M151.89,443.48a1.18,1.18,0,0,0,0,.2h-8.4a.76.76,0,0,0,0-.21.81.81,0,0,1,.72-.34c2.37.16,4.75,0,7.12.08A.77.77,0,0,1,151.89,443.48Z" transform="translate(-42.22 -336.06)" fill="#b1bca9"/><path d="M89.74,371.75c2.83-4.56,7.17-6.54,11.94-7.8a38.73,38.73,0,0,1,12.47-1c1,.06.68.47.37.93a15.76,15.76,0,0,1-6.93,5.52,36.12,36.12,0,0,1-16,2.92c-1.81,0-1.86,0-1.66,1.7.68,5.88,1.34,11.76,2.13,17.62a25.49,25.49,0,0,1-.43,7.8c-1.07,6.2-2.07,12.42-3.12,18.63a24,24,0,0,1-.63,2.39c-1-6.25-2-12.28-3-18.31-.15-.94-.25-1.89-.49-2.81-.78-3,.07-5.92.37-8.86.47-4.62,1-9.23,1.56-13.85.22-1.93.37-3.88.65-5.8a1.69,1.69,0,0,0-.79-1.88C82.09,366,77.78,363.4,74,360c-3.24-2.91-5.77-6.31-6.52-10.71-1-6.14,2-11.29,7.86-12.52,4.44-.94,9.48,1.82,11.48,6.33.26.58.49,1.16.78,1.85,1.19-4.39,3.67-7.43,8.07-8.59A9.82,9.82,0,0,1,108,345.33c.34,5.22-1.82,9.41-5.22,13.13-3.14,3.44-7,6.07-10.57,9a13.45,13.45,0,0,1-1.61,1.23C89.27,369.4,89.25,370.41,89.74,371.75Z" transform="translate(-42.22 -336.06)" fill="#99cc72"/><path d="M114.85,420.64a23.38,23.38,0,0,0,5.34-7.43c3.68-8.74-1.14-17.63-10.53-19.2q-10.23-1.71-17,6.36a4.1,4.1,0,0,1,.16-1.95c.07-.67.18-1.34.29-2,.3-1.84.53-3.7.93-5.52a14.74,14.74,0,0,1,3.34-6c7.84-9.62,23.11-10.56,31.58-1.78,5.34,5.53,6,12.16,3.54,19.17-2.13,6.07-6.35,10.59-11.38,14.43a52.24,52.24,0,0,1-5.36,3.6C115.51,420.48,115.3,420.79,114.85,420.64Z" transform="translate(-42.22 -336.06)" fill="#7b2782"/><path d="M60.27,420.2c-7.56-4.53-14.13-10-17-18.71C39.81,391,45.17,381,55.85,377.93c10.18-3,21.53,2.17,25.74,11.63a19.73,19.73,0,0,1,1,4.76c.41,2.22.76,4.45,1.13,6.71-.45,0-.5-.36-.66-.58a17.19,17.19,0,0,0-21.57-4.88c-6.53,3.44-9,10.56-6,17.55a19.88,19.88,0,0,0,2.11,3.73C58.4,418,59.35,419.1,60.27,420.2Z" transform="translate(-42.22 -336.06)" fill="#7b2782"/><path d="M103.14,427.13c2.65-5.64,2.22-9.66-1.22-12.28C99,412.62,94.39,412.09,90,416c.34-2.27.64-4.35,1-6.42.15-1,.35-2,.46-3.07.57-5.14,3.73-8.31,8.17-10.34a15.43,15.43,0,0,1,13.55,0,12.16,12.16,0,0,1,6.41,15.9,21.78,21.78,0,0,1-6.92,9.12A51.19,51.19,0,0,1,103.14,427.13Z" transform="translate(-42.22 -336.06)" fill="#7b2782"/><path d="M85.78,416.78c-4.3-4.08-7.78-4.87-11.34-2.61-3.16,2-5.17,6.51-2.83,12.25-.06,0-.15.09-.18.07-4.72-2.42-9.16-5.22-12.47-9.46-2.81-3.59-4.44-7.59-3.49-12.2,1.12-5.37,4.81-8.32,9.92-9.7a16.07,16.07,0,0,1,17.67,7.2c1.16,2,1.1,4.27,1.51,6.44C85.06,411.41,85.38,414.09,85.78,416.78Z" transform="translate(-42.22 -336.06)" fill="#7b2782"/><path d="M151.89,443.48h-8.47a79.15,79.15,0,0,1-18.82-3.32,43.35,43.35,0,0,0-13.57-2c-2.51.1-5,.66-7.5.82a85.08,85.08,0,0,1-11.84-.47,15.31,15.31,0,0,1-3.35-.39c.08-.54.59-.61.94-.79a77.22,77.22,0,0,0,8.14-4.8,3,3,0,0,1,1.09-.47,30,30,0,0,0,7.73-2.84c6.23-3.14,12.91-4.52,19.8-5.14,1.31-.12,2.63-.18,4-.27.49,0,1-.37,1.43.23a56.17,56.17,0,0,0-17.28,3.57,42.36,42.36,0,0,0-8.36,5,18.77,18.77,0,0,0,4.73-.22c5.11-.58,10.21-1.27,15.32-1.94a102.87,102.87,0,0,1,14.56-1.11,22.93,22.93,0,0,0,9-1.5,30.19,30.19,0,0,1,16.8-1.82c-.29.62-.78.27-1.21.26-4.83-.19-9.49.37-13.72,3l-.76.46c11,1.07,21.36,3.32,31,8.35A100.87,100.87,0,0,0,141,432.46c6.8,3.1,13.56,4.39,20.9,3a4.33,4.33,0,0,1-2,.69,19.23,19.23,0,0,1-2.13.33c-.67.08-1.35.16-2,.2a40.77,40.77,0,0,1-14.24-2.17,27.4,27.4,0,0,0-6.93-1.27,22.89,22.89,0,0,0-5.43.83c-3.23.68-6.45,1.42-9.6,2.11,11.31,4.84,23,7.59,35.44,6.71.34,0,.76-.36.94.23Z" transform="translate(-42.22 -336.06)" fill="#789270"/><path d="M87.08,436.91c-4.68-2.58-9.74-4.19-13-8.47A10.28,10.28,0,0,1,72,419a6.86,6.86,0,0,1,7.23-5,7.41,7.41,0,0,1,6.72,6.38C86.36,425.79,86.69,431.22,87.08,436.91Z" transform="translate(-42.22 -336.06)" fill="#7b2782"/><path d="M88.18,436.61c.23-4.42.42-8.78.71-13.14.11-1.72-.11-3.47.79-5.12a8.42,8.42,0,0,1,7.63-4.25,7,7,0,0,1,6.4,5.23,8.74,8.74,0,0,1-1.16,6.64,15.66,15.66,0,0,1-4.15,4.58,59.94,59.94,0,0,1-9.78,6A2.19,2.19,0,0,1,88.18,436.61Z" transform="translate(-42.22 -336.06)" fill="#7b2783"/><path d="M64.73,361.47C71,361.79,77,363,82.2,366.76a12.48,12.48,0,0,1,3.92,4.43c.34.65.36,1-.56,1a41.12,41.12,0,0,1-15-3.07,18.21,18.21,0,0,1-7.82-5.91,12.69,12.69,0,0,1-.68-1.11c-.29-.48-.07-.64.41-.64Z" transform="translate(-42.22 -336.06)" fill="#99cc72"/><path d="M131.42,424.05c-.43-.36-1-.06-1.43-.23a4.71,4.71,0,0,1,2.11-.2,58.62,58.62,0,0,1,9.64.43A93.49,93.49,0,0,0,131.42,424.05Z" transform="translate(-42.22 -336.06)" fill="#afbaa6"/><path d="M155.89,443.16c-.26-.3-.63-.11-.94-.23l5.8-.72A17.31,17.31,0,0,1,155.89,443.16Z" transform="translate(-42.22 -336.06)" fill="#b2bdaa"/><path d="M165,426.28c.39-.17.88.15,1.21-.26a8.73,8.73,0,0,1,2.65.61A17.23,17.23,0,0,1,165,426.28Z" transform="translate(-42.22 -336.06)" fill="#b0bca9"/><path d="M86.32,353.55c.1.52.19,1-.32,1.4-3.63,2.78-9.93,1.8-11.64-3a6.65,6.65,0,0,1,4.94-8.61,8.41,8.41,0,0,1,6.43,1.08,1.46,1.46,0,0,1,.75,1.87c-4.11-2.9-7.46-3-9.92-.33a5.65,5.65,0,0,0-.24,7.33C78.67,356.22,81.87,356.29,86.32,353.55Z" transform="translate(-42.22 -336.06)" fill="#fdfefd"/><path d="M100.41,346.32c-4.32-2.91-7.56-3-10-.24a5.66,5.66,0,0,0-.1,7.33q3.57,4.21,9.92.13c.12.52.21,1-.3,1.4-3.6,2.78-9.92,1.83-11.65-2.94a6.65,6.65,0,0,1,4.93-8.62,8.39,8.39,0,0,1,6.42,1.07A1.47,1.47,0,0,1,100.41,346.32Z" transform="translate(-42.22 -336.06)" fill="#fdfefd"/><path d="M92.37,363.56v-2.17c0-.72-.21-1.29-1.05-1.28s-1.12.52-1.18,1.24a11.55,11.55,0,0,1-.11,2.2h-.34c0-1.14,0-2.27,0-3.4,0-.38,2-.64,2.43-.26s.67.48,1.21.06a1.39,1.39,0,0,1,2.24,1,6.66,6.66,0,0,1-.08,2.69c-.44-.36-.27-.77-.31-1.11-.12-.94.43-2.23-1.14-2.44-.88-.11-1.21.65-1.23,2.52,0,.31,0,.62-.06.93Z" transform="translate(-42.22 -336.06)" fill="#f0f7eb"/><path d="M82.51,360.3c2-1.11,3.13-.55,3.15,1.31a3,3,0,0,1,0,.6c-.07.45.15,1.3-.17,1.28-.86-.08-1.68.81-2.53.08-.38-.32-.76-.65-.67-1.19a1.26,1.26,0,0,1,1-1.05c.31-.08.65,0,1-.08s.91.33.91-.34a.85.85,0,0,0-.91-.79A13.75,13.75,0,0,0,82.51,360.3Z" transform="translate(-42.22 -336.06)" fill="#f1f7ec"/><path d="M80.55,363.84c.16-1.77-.23-3.25.06-4.73.16-.77.67-1.12,1.73-.85-.75.2-1.37.29-1.33,1.06s.81.27,1.1.63C79.88,360.49,81.64,362.48,80.55,363.84Z" transform="translate(-42.22 -336.06)" fill="#fcfdfb"/><path d="M88.91,360c-2,.55-1.81,2.18-1.88,3.67l-.4-.05c0-1.15,0-2.29,0-3.44,0-.06.07-.12.12-.19C87.44,360.85,88,359.42,88.91,360Z" transform="translate(-42.22 -336.06)" fill="#eaf3e2"/><path d="M84.19,361.69c.39.15,1.12-.29,1.09.53a1.22,1.22,0,0,1-1.41,1.16c-.53,0-1.11-.18-1.1-.84C82.78,361.56,83.6,361.79,84.19,361.69Z" transform="translate(-42.22 -336.06)" fill="#9bcd75"/><text transform="translate(101.2 78.94)" font-size="79.62" fill="#9acd73" font-family="FormaDJRMicro-Regular, Forma DJR Micro" letter-spacing="-0.01em">Cuan Be<tspan x="291.23" y="0" letter-spacing="-0.02em">o</tspan></text></svg>